<svg width="48" height="48" viewBox="0 0 48 48" fill="none" xmlns="http://www.w3.org/2000/svg">
<g id="akar-icons:css-fill" clip-path="url(#clip0_28_50)">
<path id="Vector" d="M15.0039 0H20.1599V2.156H17.1599V4.312H20.1599V6.468H15.0039V0ZM21.1899 0H26.3479V1.876H23.3479V2.25H26.3479V6.562H21.1899V4.594H24.1899V4.218H21.1899V0ZM27.3799 0H32.5339V1.876H29.5339V2.25H32.5339V6.562H27.3799V4.594H30.3799V4.218H27.3799V0Z" fill="white"/>
<path id="Vector_2" fill-rule="evenodd" clip-rule="evenodd" d="M23.982 48L10.094 44.144L6 9.43402H42L37.908 44.14L23.982 48ZM14.094 25.146L14.476 29.402H29.23L28.736 34.922L23.988 36.206H23.984L19.244 34.926L18.94 31.532H14.666L15.262 38.216L23.982 40.636L32.716 38.216L33.78 26.288L33.884 25.146L34.652 16.528H13.328L13.716 20.786H29.988L29.6 25.146H14.094Z" fill="white"/>
</g>
<defs>
<clipPath id="clip0_28_50">
<rect width="48" height="48" fill="white"/>
</clipPath>
</defs>
</svg>
