<svg width="48" height="48" viewBox="0 0 48 48" fill="none" xmlns="http://www.w3.org/2000/svg">
<g id="akar-icons:django-fill">
<path id="Vector" fill-rule="evenodd" clip-rule="evenodd" d="M30.344 0H21.992V11.864C20.8032 11.577 19.5827 11.4426 18.36 11.464C9.632 11.462 4 16.61 4 24.546C4 32.782 9.31 37.072 19.51 37.082C22.916 37.082 26.066 36.782 30.344 36.022V0ZM19.468 17.954C20.5 17.954 21.308 18.054 22.284 18.354V30.85C21.092 31 20.34 31.05 19.416 31.05C15.136 31.05 12.806 28.766 12.806 24.63C12.806 20.38 15.246 17.954 19.468 17.954Z" fill="white"/>
<path id="Vector_2" d="M44 30.466V12.43H35.66V27.78C35.66 34.554 35.284 37.128 34.09 39.352C32.95 41.526 31.166 42.952 27.48 44.564L35.23 48C38.916 46.276 40.7 44.714 42.054 42.24C43.506 39.664 44 36.676 44 30.466ZM43.17 0H34.818V7.986H43.17V0Z" fill="white"/>
</g>
</svg>
