<svg width="56" height="56" viewBox="0 0 56 56" fill="none" xmlns="http://www.w3.org/2000/svg">
<g id="gg:figma">
<path id="Vector" d="M19.8333 4.66663C17.9767 4.66663 16.1963 5.40412 14.8835 6.71688C13.5708 8.02963 12.8333 9.81011 12.8333 11.6666C12.8333 13.5231 13.5708 15.3036 14.8835 16.6164C16.1963 17.9291 17.9767 18.6666 19.8333 18.6666H36.1666C38.0231 18.6666 39.8036 17.9291 41.1163 16.6164C42.4291 15.3036 43.1666 13.5231 43.1666 11.6666C43.1666 9.81011 42.4291 8.02963 41.1163 6.71688C39.8036 5.40412 38.0231 4.66663 36.1666 4.66663H19.8333ZM36.1666 21C34.3101 21 32.5296 21.7375 31.2168 23.0502C29.9041 24.363 29.1666 26.1434 29.1666 28C29.1666 29.8565 29.9041 31.637 31.2168 32.9497C32.5296 34.2625 34.3101 35 36.1666 35C38.0231 35 39.8036 34.2625 41.1163 32.9497C42.4291 31.637 43.1666 29.8565 43.1666 28C43.1666 26.1434 42.4291 24.363 41.1163 23.0502C39.8036 21.7375 38.0231 21 36.1666 21ZM12.8333 28C12.8333 26.1434 13.5708 24.363 14.8835 23.0502C16.1963 21.7375 17.9767 21 19.8333 21H26.8333V35H19.8333C17.9767 35 16.1963 34.2625 14.8835 32.9497C13.5708 31.637 12.8333 29.8565 12.8333 28ZM19.8333 37.3333C18.4488 37.3333 17.0954 37.7438 15.9443 38.513C14.7931 39.2822 13.8959 40.3754 13.3661 41.6545C12.8363 42.9336 12.6977 44.3411 12.9678 45.6989C13.2379 47.0568 13.9045 48.3041 14.8835 49.283C15.8625 50.262 17.1098 50.9287 18.4676 51.1988C19.8255 51.4689 21.233 51.3303 22.512 50.8004C23.7911 50.2706 24.8844 49.3734 25.6535 48.2223C26.4227 47.0711 26.8333 45.7178 26.8333 44.3333V37.3333H19.8333Z" fill="#1E1E1E"/>
</g>
</svg>
