<svg width="56" height="56" viewBox="0 0 56 56" fill="none" xmlns="http://www.w3.org/2000/svg">
<g id="ri:github-fill">
<path id="Vector" d="M28.0023 4.66663C15.1106 4.66663 4.66895 15.1083 4.66895 28C4.66473 32.8983 6.20372 37.6735 9.06741 41.6476C11.9311 45.6217 15.974 48.5926 20.622 50.1386C21.7886 50.3416 22.2273 49.6416 22.2273 49.028C22.2273 48.475 22.197 46.6386 22.197 44.6833C16.3356 45.7636 14.819 43.2553 14.3523 41.9416C14.0886 41.2696 12.9523 39.2 11.9606 38.6446C11.144 38.2083 9.97729 37.128 11.9303 37.1C13.769 37.0696 15.0803 38.7916 15.519 39.4916C17.619 43.0196 20.972 42.028 22.3136 41.4166C22.519 39.9 23.1303 38.8803 23.8023 38.297C18.6106 37.7136 13.1856 35.7 13.1856 26.775C13.1856 24.2363 14.0886 22.1386 15.5773 20.5053C15.344 19.922 14.5273 17.5303 15.8106 14.322C15.8106 14.322 17.7636 13.7083 22.2273 16.7113C24.127 16.1855 26.0895 15.9209 28.0606 15.925C30.044 15.925 32.0273 16.1863 33.894 16.7113C38.3576 13.678 40.3106 14.322 40.3106 14.322C41.594 17.5303 40.7773 19.922 40.544 20.5053C42.0303 22.1386 42.9356 24.2083 42.9356 26.775C42.9356 35.7303 37.4826 37.7136 32.291 38.297C33.1356 39.025 33.866 40.425 33.866 42.6136C33.866 45.7333 33.8356 48.2416 33.8356 49.0303C33.8356 49.6416 34.2743 50.3696 35.441 50.1363C40.0715 48.5709 44.0949 45.5935 46.9456 41.6229C49.7962 37.6522 51.3307 32.8879 51.3333 28C51.3333 15.1083 40.8916 4.66663 28 4.66663" fill="black"/>
</g>
</svg>
