<svg width="48" height="48" viewBox="0 0 48 48" fill="none" xmlns="http://www.w3.org/2000/svg">
<g id="fluent:javascript-16-filled">
<path id="Vector" d="M6 13.5C6 11.5109 6.79018 9.60322 8.1967 8.1967C9.60322 6.79018 11.5109 6 13.5 6H34.5C36.4891 6 38.3968 6.79018 39.8033 8.1967C41.2098 9.60322 42 11.5109 42 13.5V34.5C42 36.4891 41.2098 38.3968 39.8033 39.8033C38.3968 41.2098 36.4891 42 34.5 42H13.5C11.5109 42 9.60322 41.2098 8.1967 39.8033C6.79018 38.3968 6 36.4891 6 34.5V13.5ZM22.5 18C22.1022 18 21.7206 18.158 21.4393 18.4393C21.158 18.7206 21 19.1022 21 19.5V31.5C21 31.8978 20.842 32.2794 20.5607 32.5607C20.2794 32.842 19.8978 33 19.5 33H16.5C16.1022 33 15.7206 33.158 15.4393 33.4393C15.158 33.7206 15 34.1022 15 34.5C15 34.8978 15.158 35.2794 15.4393 35.5607C15.7206 35.842 16.1022 36 16.5 36H19.5C20.6935 36 21.8381 35.5259 22.682 34.682C23.5259 33.8381 24 32.6935 24 31.5V19.5C24 19.1022 23.842 18.7206 23.5607 18.4393C23.2794 18.158 22.8978 18 22.5 18ZM25.5 22.5V24C25.5 25.1935 25.9741 26.3381 26.818 27.182C27.6619 28.0259 28.8065 28.5 30 28.5H31.5C31.8978 28.5 32.2794 28.658 32.5607 28.9393C32.842 29.2206 33 29.6022 33 30V31.5C33 31.8978 32.842 32.2794 32.5607 32.5607C32.2794 32.842 31.8978 33 31.5 33H27C26.6022 33 26.2206 33.158 25.9393 33.4393C25.658 33.7206 25.5 34.1022 25.5 34.5C25.5 34.8978 25.658 35.2794 25.9393 35.5607C26.2206 35.842 26.6022 36 27 36H31.5C32.6935 36 33.8381 35.5259 34.682 34.682C35.5259 33.8381 36 32.6935 36 31.5V30C36 28.8065 35.5259 27.6619 34.682 26.818C33.8381 25.9741 32.6935 25.5 31.5 25.5H30C29.6022 25.5 29.2206 25.342 28.9393 25.0607C28.658 24.7794 28.5 24.3978 28.5 24V22.5C28.5 22.1022 28.658 21.7206 28.9393 21.4393C29.2206 21.158 29.6022 21 30 21H34.5C34.8978 21 35.2794 20.842 35.5607 20.5607C35.842 20.2794 36 19.8978 36 19.5C36 19.1022 35.842 18.7206 35.5607 18.4393C35.2794 18.158 34.8978 18 34.5 18H30C28.8065 18 27.6619 18.4741 26.818 19.318C25.9741 20.1619 25.5 21.3065 25.5 22.5Z" fill="white"/>
</g>
</svg>
