<svg width="48" height="48" viewBox="0 0 48 48" fill="none" xmlns="http://www.w3.org/2000/svg">
<g id="bxl:php">
<path id="Vector" d="M4.29999 33.56H7.43999C7.50781 33.5607 7.57358 33.5368 7.62508 33.4926C7.67658 33.4485 7.7103 33.3871 7.71999 33.32L8.41999 29.68H10.86C11.8813 29.7049 12.9003 29.5699 13.88 29.28C14.6733 29.0169 15.3977 28.5795 16 28C16.5399 27.5135 16.9931 26.9386 17.34 26.3C17.6833 25.6752 17.9263 25.0003 18.06 24.3C18.2725 23.5662 18.309 22.7926 18.1665 22.042C18.024 21.2914 17.7066 20.5849 17.24 19.98C16.6993 19.4306 16.045 19.0063 15.3229 18.7368C14.6007 18.4673 13.8284 18.3592 13.06 18.42H7.05999C6.98801 18.4232 6.91924 18.4507 6.86479 18.4979C6.81035 18.545 6.77342 18.6092 6.75999 18.68L3.99999 33.2C3.97103 33.2843 3.97103 33.3758 3.99999 33.46C4.03815 33.4997 4.08539 33.5296 4.13765 33.547C4.18991 33.5644 4.24562 33.5689 4.29999 33.56ZM9.99999 21.24H12C12.3805 21.1889 12.7674 21.2138 13.1381 21.3134C13.5089 21.413 13.8563 21.5852 14.16 21.82C14.5 22.18 14.56 22.86 14.38 23.82C14.2814 24.6794 13.8768 25.4746 13.24 26.06C12.4479 26.5615 11.5147 26.7931 10.58 26.72H8.97999L9.99999 21.24ZM29.6 19.34C28.5172 18.544 27.1766 18.1803 25.84 18.32H23.46L24.12 14.8C24.1395 14.7594 24.1496 14.715 24.1496 14.67C24.1496 14.625 24.1395 14.5806 24.12 14.54C24.049 14.514 23.971 14.514 23.9 14.54H20.76C20.6922 14.5393 20.6264 14.5633 20.5749 14.6074C20.5234 14.6515 20.4897 14.7129 20.48 14.78L17.72 29.32C17.7007 29.3571 17.6906 29.3982 17.6906 29.44C17.6906 29.4818 17.7007 29.5229 17.72 29.56C17.7436 29.5969 17.7761 29.6273 17.8146 29.6483C17.853 29.6692 17.8962 29.6802 17.94 29.68H21.02C21.0909 29.6802 21.1593 29.6535 21.2112 29.6052C21.2632 29.5569 21.2949 29.4907 21.3 29.42L22.84 21.28H25.06C25.96 21.28 26.28 21.48 26.38 21.6C26.4625 21.7963 26.505 22.0071 26.505 22.22C26.505 22.4329 26.4625 22.6437 26.38 22.84L25.16 29.32C25.1407 29.3571 25.1306 29.3982 25.1306 29.44C25.1306 29.4818 25.1407 29.5229 25.16 29.56C25.1848 29.5957 25.2176 29.6252 25.2558 29.646C25.294 29.6668 25.3365 29.6785 25.38 29.68H28.5C28.572 29.6768 28.6407 29.6493 28.6952 29.6022C28.7496 29.555 28.7866 29.4908 28.8 29.42L30.08 22.62C30.2865 22.0778 30.3508 21.4917 30.2668 20.9175C30.1828 20.3434 29.9532 19.8003 29.6 19.34ZM38.64 18.32H32.38C32.3432 18.3173 32.3062 18.3219 32.2712 18.3335C32.2362 18.3451 32.2038 18.3635 32.1759 18.3877C32.1481 18.4118 32.1252 18.4412 32.1088 18.4743C32.0923 18.5073 32.0825 18.5432 32.08 18.58L29.16 33.2C29.1418 33.2409 29.1324 33.2852 29.1324 33.33C29.1324 33.3748 29.1418 33.4191 29.16 33.46C29.1869 33.492 29.2206 33.5177 29.2586 33.535C29.2967 33.5523 29.3382 33.5608 29.38 33.56H32.64C32.7112 33.5658 32.7819 33.5442 32.8376 33.4996C32.8934 33.455 32.93 33.3907 32.94 33.32L33.68 29.68H36.22C37.2741 29.7026 38.3257 29.5678 39.34 29.28C40.2132 29.0371 41.0201 28.5995 41.7 28C42.2586 27.5157 42.7318 26.9411 43.1 26.3C43.4473 25.675 43.6969 25.0006 43.84 24.3C44.058 23.5655 44.0955 22.7892 43.9492 22.0371C43.803 21.285 43.4773 20.5793 43 19.98C42.4353 19.4062 41.7535 18.9608 41.0011 18.6744C40.2487 18.3879 39.4433 18.267 38.64 18.32ZM39.88 23.86C39.7604 24.726 39.3347 25.5206 38.68 26.1C37.8593 26.6038 36.9001 26.8349 35.94 26.76H34.34L35.42 21.24H37.42C38.2195 21.142 39.0265 21.3491 39.68 21.82C40 22.18 40 22.86 39.88 23.86Z" fill="white"/>
</g>
</svg>
