<svg width="48" height="48" viewBox="0 0 48 48" fill="none" xmlns="http://www.w3.org/2000/svg">
<g id="akar-icons:python-fill" clip-path="url(#clip0_28_55)">
<g id="Group">
<g id="Clip path group">
<mask id="mask0_28_55" style="mask-type:luminance" maskUnits="userSpaceOnUse" x="0" y="0" width="48" height="48">
<g id="akarIconsPythonFill0">
<path id="Vector" d="M0 0H48V48H0V0Z" fill="white"/>
</g>
</mask>
<g mask="url(#mask0_28_55)">
<g id="Group_2">
<path id="Vector_2" d="M23.828 0C11.64 0 12.4 5.312 12.4 5.312L12.414 10.816H24.042V12.468H7.8C7.8 12.468 0 11.578 0 23.938C0 36.298 6.806 35.858 6.806 35.858H10.866V30.124C10.866 30.124 10.648 23.284 17.566 23.284H29.098C29.098 23.284 35.578 23.388 35.578 16.988V6.404C35.578 6.404 36.562 0 23.828 0ZM17.416 3.7C18.572 3.7 19.508 4.64 19.508 5.804C19.508 6.966 18.572 7.906 17.416 7.906C16.26 7.906 15.324 6.966 15.324 5.804C15.324 4.64 16.258 3.7 17.416 3.7Z" fill="white"/>
<path id="Vector_3" d="M24.1739 48C36.3579 48 35.5979 42.688 35.5979 42.688L35.5839 37.184H23.9559V35.532H40.2019C40.2019 35.532 48.0019 36.422 48.0019 24.062C48.0019 11.702 41.1939 12.142 41.1939 12.142H37.1339V17.876C37.1339 17.876 37.3519 24.716 30.4339 24.716H18.9039C18.9039 24.716 12.4239 24.612 12.4239 31.012V41.596C12.4239 41.596 11.4399 48 24.1739 48ZM30.5859 44.3C29.4279 44.3 28.4939 43.36 28.4939 42.196C28.4939 41.034 29.4279 40.094 30.5859 40.094C31.7419 40.094 32.6779 41.034 32.6779 42.196C32.6779 43.36 31.7419 44.3 30.5859 44.3Z" fill="white"/>
</g>
</g>
</g>
</g>
</g>
<defs>
<clipPath id="clip0_28_55">
<rect width="48" height="48" fill="white"/>
</clipPath>
</defs>
</svg>
